<svg xmlns="http://www.w3.org/2000/svg" width="2880" height="1800" viewBox="0 0 2880 1800" fill="none"><script xmlns="" type="text/javascript" src="chrome-extension://iihddpplbmfpeoonnoehbdjmakjhabml/webpack_common.js"/><script xmlns="" type="text/javascript" src="chrome-extension://iihddpplbmfpeoonnoehbdjmakjhabml/webpack_content.js"/>
<g id="case-header">
<g id="logo-avvr">
<path id="a_1_" d="M1135.32 895.3C1146.68 895.3 1159.22 880.417 1164.7 871.8L1165.09 872.192C1162.74 877.675 1161.57 883.55 1160.78 889.425C1160.78 892.558 1162.74 895.3 1165.09 895.3C1170.58 895.3 1176.45 887.075 1179.59 881.983L1177.63 880.808C1175.67 883.55 1172.93 889.033 1171.36 889.033C1170.58 889.033 1170.19 888.25 1170.19 887.467C1170.19 885.9 1170.58 884.333 1170.97 882.375L1193.3 806H1191.73L1171.36 809.525V811.875C1172.54 811.483 1174.1 811.483 1175.67 811.483C1178.02 811.483 1180.76 812.267 1180.76 815.008C1179.98 819.708 1178.8 824.408 1177.24 828.717L1173.32 842.425C1170.58 838.508 1166.27 836.158 1161.57 836.158C1144.33 836.158 1122.39 860.05 1122.39 879.242C1122 889.425 1128.27 895.3 1135.32 895.3V895.3ZM1160.39 839.292C1162.74 839.292 1165.09 840.075 1167.05 842.033C1168.62 843.6 1169.79 846.342 1169.79 848.692C1169.79 862.008 1152.16 887.858 1141.2 887.858C1136.89 887.858 1132.97 885.117 1132.97 878.067C1132.97 861.617 1148.64 839.292 1160.39 839.292V839.292ZM1609.33 873.758V876.5C1609.33 879.633 1609.72 882.375 1610.11 885.508C1611.68 891.775 1615.99 894.517 1625 894.517C1628.92 894.517 1632.44 894.125 1636.36 893.733V881.2L1632.05 881.592C1626.57 881.592 1625.78 879.633 1625.78 874.933V849.083H1635.97V836.158H1625.78V819.317H1609.33V836.158H1601.1V848.692H1609.33V873.758V873.758ZM1170.97 934.467C1168.23 934.467 1165.48 936.817 1165.48 939.558C1165.48 944.65 1171.36 944.65 1171.36 948.175C1171.36 956.008 1155.3 974.808 1148.64 981.858C1147.86 964.233 1147.07 948.567 1141.2 934.075L1122.78 937.992L1123.18 940.342C1125.13 939.558 1127.09 939.558 1129.44 939.95C1132.97 940.733 1137.28 944.65 1139.63 993.217H1141.98C1152.56 982.642 1178.02 956.792 1178.02 942.3C1178.02 938.383 1174.89 934.858 1170.97 934.467V934.467ZM1248.14 894.125L1253.23 877.283H1278.31L1283.4 894.125H1303.38L1275.17 815.4H1255.19L1228.55 894.125H1248.14V894.125ZM1265.38 832.633L1274 862.792H1257.15L1265.38 832.633V832.633ZM1509.83 895.692C1520.8 896.475 1531.37 889.817 1535.29 879.633C1536.07 877.283 1536.86 875.325 1537.25 872.975L1521.19 872.192C1520.8 878.067 1516.09 882.375 1510.22 881.983C1507.87 881.983 1505.52 881.2 1503.56 879.633C1500.03 876.892 1498.47 872.192 1498.47 865.142C1498.47 854.175 1503.17 848.692 1510.22 848.692C1512.96 848.3 1515.31 849.083 1517.27 851.042C1519.23 852.608 1520.4 854.958 1520.8 857.7L1536.47 856.917C1536.47 854.958 1536.07 853.392 1535.29 851.433C1531.37 840.858 1521.19 834.2 1509.83 835.375C1491.41 835.767 1481.62 848.692 1481.23 865.533C1481.23 881.592 1490.24 895.692 1509.83 895.692V895.692ZM1397.79 894.125L1416.98 836.55H1399.75L1390.34 872.192L1379.77 836.55H1362.14L1382.12 894.125H1397.79V894.125ZM1312.39 890.6C1316.31 893.733 1321.4 895.3 1326.1 895.3C1330.8 895.692 1335.89 893.733 1339.42 890.6L1341.38 888.25V893.733H1357.44V815.4H1340.99V840.075C1337.07 836.55 1332.37 834.983 1327.27 834.983C1321.79 834.983 1316.31 836.55 1312 840.075C1304.94 846.342 1301.42 855.742 1301.81 865.142C1301.03 874.933 1304.94 884.333 1312.39 890.6ZM1330.02 848.3C1334.33 848.3 1339.81 850.258 1340.99 859.267C1341.38 860.833 1341.38 862.792 1341.38 864.75C1341.38 870.625 1340.59 881.592 1330.02 881.592C1322.57 881.592 1318.26 875.717 1318.26 864.75C1318.66 854.567 1323.36 848.3 1330.02 848.3ZM1200.35 895.3C1211.71 895.3 1221.5 887.858 1229.34 880.417L1227.77 878.458C1220.33 884.333 1214.45 888.642 1206.62 888.642C1203.09 888.642 1199.17 887.467 1196.82 884.725C1194.47 881.983 1192.51 878.458 1192.51 874.933L1192.91 869.842C1212.89 867.883 1233.26 859.267 1233.26 845.558C1233.26 838.117 1225.81 836.158 1219.54 836.158C1199.96 836.158 1181.15 856.917 1181.15 876.108C1181.94 881.2 1185.07 895.3 1200.35 895.3V895.3ZM1218.37 839.292C1219.94 839.292 1221.9 839.683 1223.07 840.858C1224.25 842.033 1225.03 843.6 1225.03 845.558C1225.03 852.608 1216.41 864.358 1194.08 866.708C1196.04 855.742 1205.83 839.292 1218.37 839.292V839.292ZM1221.11 987.342C1220.33 987.342 1219.94 986.558 1219.94 985.775C1219.94 984.208 1220.33 982.642 1220.72 981.075L1221.11 980.292L1233.65 935.25L1223.85 936.817L1221.9 943.475H1221.5C1220.33 938.383 1215.63 934.858 1210.53 935.25C1192.91 935.25 1172.14 959.925 1172.14 979.117C1172.14 988.908 1178.41 993.608 1184.68 993.608C1195.26 993.608 1206.62 982.642 1212.1 975.2L1212.49 975.592C1210.93 979.9 1209.75 984.208 1209.36 988.517C1209.36 989.692 1209.75 991.258 1210.53 992.433C1211.32 993.608 1212.89 994 1214.06 994C1219.54 994 1225.42 986.167 1228.55 981.075L1226.6 979.9C1225.42 981.858 1222.68 987.342 1221.11 987.342V987.342ZM1190.95 986.167C1188.6 986.167 1186.25 985.383 1184.68 983.425C1183.11 981.467 1182.33 979.117 1182.72 976.767C1182.72 962.275 1197.61 938.383 1210.53 938.383C1217.19 938.383 1219.15 943.083 1219.15 949.35C1218.76 967.367 1202.7 986.167 1190.95 986.167V986.167ZM1653.2 972.85V947H1663.39V934.467H1653.2V917.625H1636.75V934.467H1628.53V947H1636.75V974.808C1636.75 977.942 1637.14 980.683 1637.54 983.817C1639.1 990.083 1643.41 992.825 1652.42 992.825C1656.34 992.825 1659.86 992.433 1663.78 992.042V979.508L1659.47 979.9C1653.99 979.508 1653.2 977.55 1653.2 972.85V972.85ZM1598.75 932.508C1580.34 932.9 1569.37 946.608 1569.76 963.45C1569.76 980.683 1580.34 993.608 1598.75 993.608C1606.59 994 1614.42 991.258 1619.91 985.775C1623.04 983.033 1625 979.508 1626.17 975.2L1609.72 974.025C1609.33 975.2 1608.55 975.983 1607.76 976.767C1605.41 979.117 1602.28 980.292 1599.14 979.9C1594.44 979.9 1588.18 977.55 1586.61 967.367H1627.35V964.625C1626.96 949.35 1619.51 932.508 1598.75 932.508V932.508ZM1587 955.617C1587.78 949.742 1592.88 945.433 1598.75 945.825C1603.45 945.433 1607.76 948.175 1609.33 952.875C1609.72 953.658 1610.11 954.833 1610.11 956.008C1610.11 955.617 1587 955.617 1587 955.617V955.617ZM1284.18 967.758C1290.06 950.133 1291.23 947.392 1291.23 942.692C1291.23 940.342 1290.84 938.383 1289.28 936.817C1287.71 935.25 1285.75 934.467 1283.4 934.467C1270.86 934.467 1257.94 953.658 1251.28 963.058L1250.88 962.667L1259.11 934.467H1257.94L1237.57 937.992L1237.96 940.342C1239.13 939.95 1240.7 939.95 1242.27 939.558C1245.01 939.558 1246.97 940.342 1246.97 943.083C1246.58 946.608 1245.79 950.525 1244.62 954.05L1233.65 991.65H1243.05L1246.97 979.508C1250.88 967.367 1268.9 941.517 1278.31 941.517C1280.66 941.517 1281.44 942.692 1281.44 944.258C1281.44 947.392 1279.87 951.308 1275.56 965.017C1270.86 979.508 1268.9 984.992 1268.9 987.733C1268.9 989.3 1269.3 990.475 1270.47 991.65C1271.65 992.825 1272.82 993.217 1274.39 993.217C1279.87 993.217 1287.32 984.208 1290.45 979.117L1288.49 977.942C1286.53 980.683 1282.22 987.342 1280.66 987.342C1279.87 987.342 1279.48 986.558 1279.48 985.775C1279.48 984.208 1279.87 982.25 1280.66 981.075L1284.18 967.758V967.758ZM1546.26 992.042H1562.32V934.467H1546.26V992.042ZM1748.01 838.9C1744.48 836.55 1740.56 834.983 1736.25 834.983C1729.99 834.983 1723.72 837.725 1719.8 842.817V836.55H1703.74V894.125H1720.19V866.317C1720.19 859.267 1720.19 855.35 1723.72 851.825C1725.29 850.258 1728.03 849.083 1730.38 849.083C1731.95 849.083 1733.51 849.475 1734.69 850.258C1739.39 853 1739 858.483 1739 862.008V893.733H1755.84V862.4C1755.45 855.35 1756.63 845.558 1748.01 838.9ZM1668.48 834.592C1650.07 834.983 1639.1 848.692 1639.49 865.533C1639.49 882.767 1650.07 895.692 1668.48 895.692C1676.32 896.083 1684.15 893.342 1689.64 887.858C1692.77 885.117 1695.12 881.592 1695.9 877.283L1679.45 876.108C1679.06 877.283 1678.28 878.067 1677.49 878.85C1675.14 881.2 1672.01 882.375 1668.87 881.983C1664.17 881.983 1657.91 879.633 1656.34 869.45H1696.69V866.708C1696.69 851.433 1688.85 834.592 1668.48 834.592V834.592ZM1656.73 857.308C1657.51 851.433 1662.61 847.125 1668.48 847.517C1673.18 847.125 1677.49 849.867 1679.06 854.567C1679.45 855.35 1679.84 856.525 1679.84 857.7H1656.73V857.308V857.308ZM1546.26 928.2H1562.32V913.317H1546.26V928.2ZM1562.32 895.692C1568.98 895.692 1575.25 893.342 1579.95 888.642L1580.73 893.733H1597.97L1597.58 893.342C1596.01 889.425 1595.23 885.117 1595.62 881.2V862.008C1596.01 856.917 1595.62 851.433 1594.05 846.342C1592.88 843.6 1590.92 841.25 1588.96 839.683C1583.47 836.158 1577.21 834.2 1570.55 834.983C1567.8 834.983 1545.87 833.808 1544.69 854.958H1559.97C1559.97 854.175 1559.97 853 1560.36 852.217C1562.32 848.692 1566.24 847.125 1570.16 847.517C1572.9 847.517 1578.77 847.908 1578.77 853C1578.77 856.525 1574.46 856.917 1569.76 857.7L1565.06 858.483L1561.93 858.875C1554.49 860.442 1547.83 861.617 1543.91 867.883C1542.34 870.625 1541.56 873.758 1541.56 877.283C1541.95 889.425 1551.74 895.692 1562.32 895.692V895.692ZM1560.75 871.8C1563.5 869.45 1572.9 868.275 1575.64 867.492C1577.21 867.1 1578.38 866.708 1579.56 866.317V875.325C1576.81 880.025 1571.72 882.767 1566.24 882.767C1563.1 882.767 1558.79 881.592 1558.4 876.892C1558.4 874.933 1559.19 872.975 1560.75 871.8V871.8ZM1455.77 936.817C1452.24 934.467 1448.32 932.9 1444.01 932.9C1437.75 932.9 1431.48 935.642 1427.56 940.733V934.075H1411.5V991.65H1427.95V963.842C1427.95 956.792 1427.95 952.875 1431.48 949.35C1433.05 947.783 1435.79 946.608 1438.14 946.608C1439.7 946.608 1441.27 947 1442.45 947.783C1447.15 950.525 1446.76 956.008 1446.76 959.533V991.258H1463.6V959.925C1463.21 953.267 1464.38 943.475 1455.77 936.817V936.817ZM1332.37 934.467L1322.97 970.108L1312.39 934.467H1294.76L1314.74 992.042H1330.41L1349.6 934.467H1332.37ZM1402.49 979.117V959.925C1402.88 954.833 1402.49 949.35 1400.92 944.258C1399.75 941.517 1397.79 939.167 1395.83 937.6C1390.34 934.075 1384.08 932.117 1377.42 932.9C1374.68 932.9 1352.74 931.725 1351.56 952.875H1366.84C1366.84 952.092 1366.84 950.917 1367.23 950.133C1369.19 946.608 1373.11 945.042 1377.03 945.433C1379.77 945.433 1385.64 945.825 1385.64 950.917C1385.64 954.442 1381.33 954.833 1376.63 955.617L1371.93 956.4L1368.8 956.792C1361.36 958.358 1354.7 959.533 1350.78 965.8C1349.21 968.542 1348.43 971.675 1348.43 975.2C1348.43 987.733 1358.22 994 1368.8 993.608C1375.46 993.608 1381.73 991.258 1386.43 986.558L1387.21 991.65H1404.45H1404.06C1402.49 987.733 1402.1 983.425 1402.49 979.117V979.117ZM1386.04 973.242C1383.29 977.942 1378.2 980.683 1372.72 980.683C1369.58 980.683 1365.27 979.508 1364.88 974.808C1364.88 972.85 1365.67 970.892 1367.23 970.108C1369.97 967.758 1379.38 966.583 1382.12 965.8L1386.04 964.625V973.242ZM1447.54 834.592C1429.13 834.592 1416.59 846.733 1416.59 865.533C1416.59 882.375 1427.17 895.692 1445.97 895.692C1458.51 896.083 1469.87 888.642 1474.18 876.892C1475.75 872.975 1476.14 868.667 1476.14 864.358C1476.14 847.517 1465.17 834.592 1447.54 834.592V834.592ZM1446.36 882.375C1444.01 882.375 1442.06 881.983 1440.1 880.808C1435.79 878.067 1433.44 873.367 1433.44 865.533C1433.05 853.392 1438.92 847.908 1446.36 847.908C1452.63 847.908 1458.12 852.217 1458.9 858.875C1459.29 860.833 1459.29 862.792 1459.29 864.358C1459.29 876.5 1454.2 882.375 1446.36 882.375ZM1533.72 970.892C1532.55 965.017 1531.37 956.008 1522.75 954.05C1536.47 950.917 1536.47 937.208 1536.47 934.858C1536.47 929.767 1534.9 924.675 1531.76 920.758C1525.5 913.708 1516.88 912.925 1502.38 912.925H1474.57V991.258H1492.2V962.275H1498.47C1502.38 961.883 1506.69 962.275 1510.61 963.058C1514.92 965.017 1515.7 968.542 1516.88 975.592C1518.05 983.817 1518.84 987.342 1521.58 991.258H1539.99C1538.42 989.3 1537.25 986.95 1536.47 984.208C1534.9 980.292 1534.11 975.592 1533.72 970.892V970.892ZM1517.27 944.258C1513.74 948.958 1507.48 948.958 1498.07 948.958H1491.81V928.592H1502.38C1508.26 928.592 1518.84 927.417 1518.84 937.992C1518.84 939.95 1518.45 942.3 1517.27 944.258V944.258Z" fill="white"/>
</g>
</g>
</svg>